<svg width="414" height="781" viewBox="0 0 414 781" fill="none" xmlns="http://www.w3.org/2000/svg">
<path d="M101.609 320.422C259.738 180.024 308.246 236.268 352.934 333.369C397.623 430.469 213.904 505.103 259.738 596.873C305.572 688.642 46.9901 727.751 101.609 596.873C156.229 465.994 -56.5191 460.821 101.609 320.422Z" fill="#00FF38" fill-opacity="0.1"/>
<path d="M152.432 689.385C74.0817 783.11 32.1507 712.859 -26.6741 743.113C-85.499 773.367 -105.722 605.607 -63.88 575.103C-22.0382 544.599 30.1744 595.048 106.279 558.835C182.384 522.623 230.783 595.66 152.432 689.385Z" fill="#FF7575" fill-opacity="0.09"/>
<circle cx="333" cy="565" r="27" fill="#E8E5FC"/>
<circle cx="48.5" cy="281.5" r="14.5" fill="#FEEFEF"/>
<path d="M96.2846 181.281C111.285 46.7806 324.804 -44.9299 377.757 22.9138C430.709 90.7575 305.277 194.897 401.78 281.914C498.282 368.931 449.515 531.881 324.804 485.872C200.093 439.863 81.2846 315.781 96.2846 181.281Z" fill="#5200FF" fill-opacity="0.05"/>
</svg>
