<svg width="414" height="313" viewBox="0 0 414 313" fill="none" xmlns="http://www.w3.org/2000/svg">
<g clip-path="url(#clip0_1797_4183)">
<path d="M144.149 57.3004C77.9411 123.323 -6.68418e-05 114.466 -6.68418e-05 114.466L-5.55796e-05 -14.3578L360.373 -14.3578C360.373 -14.3578 210.357 -8.7218 144.149 57.3004Z" fill="url(#paint0_linear_1797_4183)"/>
<path d="M414 298.642C414 298.642 305.674 196.742 189.839 168.465C74.0052 140.187 129.777 -3.82886 129.777 -3.82886L414 -3.82883L414 298.642Z" fill="url(#paint1_linear_1797_4183)"/>
<path d="M231.668 126.349C78.2953 102.515 -1.75303e-05 -6.70035 -1.75303e-05 -6.70035L414 -6.70032L414 286.397C291.731 237.382 386.752 150.448 231.668 126.349Z" fill="url(#paint2_linear_1797_4183)"/>
</g>
<defs>
<linearGradient id="paint0_linear_1797_4183" x1="184.377" y1="103.999" x2="180.509" y2="-14.3684" gradientUnits="userSpaceOnUse">
<stop stop-color="#B5F42E" stop-opacity="0.19"/>
<stop offset="1" stop-color="#E4F42E" stop-opacity="0"/>
</linearGradient>
<linearGradient id="paint1_linear_1797_4183" x1="271.889" y1="298.642" x2="271.889" y2="-3.82884" gradientUnits="userSpaceOnUse">
<stop stop-color="#2EF44E" stop-opacity="0"/>
<stop offset="1" stop-color="#2EF489" stop-opacity="0.1"/>
</linearGradient>
<linearGradient id="paint2_linear_1797_4183" x1="242.93" y1="325.443" x2="242.93" y2="-6.70037" gradientUnits="userSpaceOnUse">
<stop stop-color="#4A2EF4" stop-opacity="0"/>
<stop offset="1" stop-color="#4A2EF4" stop-opacity="0.1"/>
</linearGradient>
<clipPath id="clip0_1797_4183">
<rect width="414" height="313" fill="white" transform="translate(414 313) rotate(-180)"/>
</clipPath>
</defs>
</svg>
