<svg width="24" height="24" viewBox="0 0 24 24" fill="none" xmlns="http://www.w3.org/2000/svg">
<rect x="8" y="5" width="8" height="16" fill="white"/>
<rect x="10" y="3" width="4" height="2" fill="white"/>
<path d="M17 6.49879C17 5.39422 16.1046 4.5 15 4.5H14.2222V2.625C14.2222 2.28 13.9733 2 13.6667 2L10.3333 2C10.0267 2 9.77778 2.28 9.77778 2.625V4.5L9 4.5C7.89543 4.5 7 5.39412 7 6.49869C7 9.85131 7 16.577 7 20.0062C7 21.1108 7.89543 22 9 22H15C16.1046 22 17 21.1107 17 20.0061C17 16.5786 17 9.85188 17 6.49879ZM10.8889 3.25H13.1111V4.5L10.8889 4.5V3.25ZM15.8889 19.75C15.8889 20.3023 15.4412 20.75 14.8889 20.75H9.11112C8.55883 20.75 8.11112 20.3023 8.11112 19.75L8.11112 6.75C8.11112 6.19772 8.55883 5.75 9.11112 5.75L14.8889 5.75C15.4412 5.75 15.8889 6.19772 15.8889 6.75L15.8889 19.75Z" fill="black"/>
<path d="M14.5 11H9.50002C9.22387 11 9.00002 11.2239 9.00002 11.5V19.5C9.00002 19.7761 9.22387 20 9.50002 20H14.5C14.7762 20 15 19.7761 15 19.5L15 11.5C15 11.2239 14.7762 11 14.5 11Z" fill="#94C605"/>
</svg>
