<svg width="24" height="24" viewBox="0 0 24 24" fill="none" xmlns="http://www.w3.org/2000/svg">
<path d="M20.5713 11.0476H12.9524V3.42851C12.9524 2.90291 12.5257 2.47619 11.9999 2.47619C11.4743 2.47619 11.0476 2.90291 11.0476 3.42851V11.0476H3.42851C2.90291 11.0476 2.47619 11.4743 2.47619 11.9999C2.47619 12.5257 2.90291 12.9524 3.42851 12.9524H11.0476V20.5713C11.0476 21.0971 11.4743 21.5238 11.9999 21.5238C12.5257 21.5238 12.9524 21.0971 12.9524 20.5713V12.9524H20.5713C21.0971 12.9524 21.5238 12.5257 21.5238 11.9999C21.5238 11.4743 21.0971 11.0476 20.5713 11.0476Z" fill="#8C8C8C"/>
<path fill-rule="evenodd" clip-rule="evenodd" d="M13.4286 10.5714H20.5713C21.36 10.5714 22 11.2113 22 11.9999C22 12.7887 21.3601 13.4286 20.5713 13.4286H13.4286V20.5713C13.4286 21.3601 12.7887 22 11.9999 22C11.2113 22 10.5714 21.36 10.5714 20.5713V13.4286H3.42851C2.63986 13.4286 2 12.7886 2 11.9999C2 11.2113 2.63992 10.5714 3.42851 10.5714H10.5714V3.42851C10.5714 2.63992 11.2113 2 11.9999 2C12.7886 2 13.4286 2.63986 13.4286 3.42851V10.5714ZM20.5713 11.0476C21.0971 11.0476 21.5238 11.4743 21.5238 11.9999C21.5238 12.5257 21.0971 12.9524 20.5713 12.9524H12.9524V20.5713C12.9524 21.0971 12.5257 21.5238 11.9999 21.5238C11.4743 21.5238 11.0476 21.0971 11.0476 20.5713V12.9524H3.42851C2.90291 12.9524 2.47619 12.5257 2.47619 11.9999C2.47619 11.4743 2.90291 11.0476 3.42851 11.0476H11.0476V3.42851C11.0476 2.90291 11.4743 2.47619 11.9999 2.47619C12.5257 2.47619 12.9524 2.90291 12.9524 3.42851V11.0476H20.5713Z" fill="#8C8C8C"/>
</svg>
