<svg width="24" height="24" viewBox="0 0 24 24" fill="none" xmlns="http://www.w3.org/2000/svg">
<path fill-rule="evenodd" clip-rule="evenodd" d="M19.1053 12C19.1053 15.9241 15.9241 19.1053 12 19.1053C8.07587 19.1053 4.89474 15.9241 4.89474 12C4.89474 8.07587 8.07587 4.89474 12 4.89474C15.9241 4.89474 19.1053 8.07587 19.1053 12ZM21 12C21 16.9706 16.9706 21 12 21C7.02944 21 3 16.9706 3 12C3 7.02944 7.02944 3 12 3C16.9706 3 21 7.02944 21 12ZM11.0752 12.9248V7.96242H12.5639V12.1804L16.0376 14.2399L15.323 15.4457L11.0752 12.9248Z" fill="#8C8C8C"/>
</svg>
