<svg width="24" height="24" viewBox="0 0 24 24" fill="none" xmlns="http://www.w3.org/2000/svg">
<g clip-path="url(#clip0_1199_7629)">
<path d="M18.7343 17.3874L13.3469 12L18.7344 6.61249C19.1061 6.24084 19.1061 5.63737 18.7343 5.26559C18.3626 4.89393 17.7592 4.89393 17.3875 5.26559L12 10.6531L6.61249 5.26559C6.24084 4.89393 5.63737 4.89393 5.26571 5.26559C4.89393 5.63737 4.89393 6.24084 5.26559 6.61249L10.6531 12L5.26571 17.3874C4.89393 17.7592 4.89393 18.3626 5.26559 18.7343C5.63737 19.1061 6.24084 19.1061 6.61262 18.7343L12 13.3469L17.3874 18.7343C17.7592 19.1061 18.3626 19.1061 18.7344 18.7343C19.1061 18.3626 19.1061 17.7592 18.7343 17.3874Z" fill="#8C8C8C"/>
<path fill-rule="evenodd" clip-rule="evenodd" d="M14.0203 12L19.071 17.0507C19.6287 17.6084 19.6288 18.5133 19.0711 19.071C18.5134 19.6287 17.6084 19.6287 17.0507 19.071L12 14.0203L6.94934 19.071C6.39159 19.6287 5.48661 19.6287 4.92887 19.071C4.37121 18.5133 4.37129 17.6084 4.92899 17.0507L9.97966 12L4.92887 6.94921C4.37121 6.39155 4.37129 5.48657 4.92899 4.92887C5.48661 4.37125 6.39159 4.37125 6.94921 4.92887L12 9.97966L17.0508 4.92887C17.6084 4.37125 18.5134 4.37125 19.071 4.92887C19.6287 5.48657 19.6288 6.39155 19.0711 6.94921L14.0203 12ZM18.7343 17.3874C19.1061 17.7592 19.1061 18.3626 18.7344 18.7343C18.3626 19.1061 17.7592 19.1061 17.3874 18.7343L12 13.3469L6.61262 18.7343C6.24084 19.1061 5.63737 19.1061 5.26559 18.7343C4.89393 18.3626 4.89393 17.7592 5.26571 17.3874L10.6531 12L5.26559 6.61249C4.89393 6.24084 4.89393 5.63737 5.26571 5.26559C5.63737 4.89393 6.24084 4.89393 6.61249 5.26559L12 10.6531L17.3875 5.26559C17.7592 4.89393 18.3626 4.89393 18.7343 5.26559C19.1061 5.63737 19.1061 6.24084 18.7344 6.61249L13.3469 12L18.7343 17.3874Z" fill="#8C8C8C"/>
</g>
<defs>
<clipPath id="clip0_1199_7629">
<rect width="24" height="24" fill="white"/>
</clipPath>
</defs>
</svg>
