<svg width="24" height="24" viewBox="0 0 24 24" fill="none" xmlns="http://www.w3.org/2000/svg">
<path fill-rule="evenodd" clip-rule="evenodd" d="M2.9091 2H10.1818C10.6839 2 11.0909 2.40703 11.0909 2.9091V10.1818C11.0909 10.6839 10.6839 11.0909 10.1818 11.0909H2.9091C2.40703 11.0909 2 10.6839 2 10.1818V2.9091C2 2.40703 2.40703 2 2.9091 2ZM3.81816 9.27273H9.2727V3.81816H3.81816V9.27273ZM6.54545 5.63637C6.78483 5.63637 7.01932 5.73332 7.18842 5.90242C7.35749 6.07211 7.45456 6.30606 7.45456 6.54547C7.45456 6.78488 7.35752 7.01883 7.18842 7.18852C7.01877 7.35762 6.78487 7.45457 6.54545 7.45457C6.30604 7.45457 6.07206 7.35762 5.90241 7.18852C5.73331 7.01879 5.63635 6.78488 5.63635 6.54547C5.63635 6.30606 5.73331 6.07152 5.90241 5.90242C6.07151 5.73332 6.30608 5.63637 6.54545 5.63637ZM18.0975 5.90242C17.9278 5.73332 17.6939 5.63637 17.4545 5.63637C17.2151 5.63637 16.9806 5.73332 16.8115 5.90242C16.6424 6.07211 16.5454 6.30606 16.5454 6.54547C16.5454 6.78488 16.6424 7.01879 16.8115 7.18852C16.9806 7.35762 17.2151 7.45457 17.4545 7.45457C17.6939 7.45457 17.9278 7.35762 18.0975 7.18852C18.2666 7.01883 18.3636 6.78488 18.3636 6.54547C18.3636 6.30606 18.2666 6.07211 18.0975 5.90242ZM13.8182 2H21.0909C21.593 2 22 2.40703 22 2.9091V10.1818C22 10.6839 21.593 11.0909 21.0909 11.0909H13.8182C13.3161 11.0909 12.9091 10.6839 12.9091 10.1818V2.9091C12.9091 2.40703 13.3161 2 13.8182 2ZM14.7273 9.27273H20.1818V3.81816H14.7273V9.27273ZM7.18842 16.8115C7.01877 16.6424 6.78483 16.5455 6.54545 16.5455C6.30608 16.5455 6.07206 16.6424 5.90241 16.8115C5.73331 16.9812 5.63635 17.2152 5.63635 17.4546C5.63635 17.694 5.73331 17.9285 5.90241 18.0976C6.07206 18.2667 6.30604 18.3637 6.54545 18.3637C6.78487 18.3637 7.01877 18.2667 7.18842 18.0976C7.35752 17.9279 7.45456 17.694 7.45456 17.4546C7.45452 17.2152 7.35749 16.9812 7.18842 16.8115ZM2.9091 12.9091H10.1818C10.6839 12.9091 11.0909 13.3161 11.0909 13.8182V21.0909C11.0909 21.593 10.6839 22 10.1818 22H2.9091C2.40703 22 2 21.593 2 21.0909V13.8182C2 13.3161 2.40703 12.9091 2.9091 12.9091ZM3.81816 20.1818H9.2727V14.7273H3.81816V20.1818ZM18.0606 16.5455H17.4545C16.9524 16.5455 16.5454 16.9525 16.5454 17.4546C16.5454 17.9566 16.9524 18.3637 17.4545 18.3637H18.0606C18.5626 18.3637 18.9697 17.9566 18.9697 17.4546C18.9697 16.9525 18.5626 16.5455 18.0606 16.5455ZM20.1818 19.2727C20.1818 18.7707 20.5888 18.3636 21.0909 18.3636C21.593 18.3636 22 18.7707 22 19.2727V21.0909C22 21.593 21.593 22 21.0909 22H18.0606C17.5585 22 17.1515 21.593 17.1515 21.0909C17.1515 20.5889 17.5585 20.1818 18.0606 20.1818H20.1818V19.2727ZM13.8182 16.5455C13.3161 16.5455 12.9091 16.9525 12.9091 17.4546V18.6667C12.9091 19.1688 13.3161 19.5758 13.8182 19.5758C14.3202 19.5758 14.7273 19.1688 14.7273 18.6667V17.4546C14.7273 16.9525 14.3202 16.5455 13.8182 16.5455ZM16.2424 12.9091H18.0606C18.5626 12.9091 18.9697 13.3161 18.9697 13.8182C18.9697 14.3203 18.5626 14.7273 18.0606 14.7273H16.2424C15.7403 14.7273 15.3333 14.3203 15.3333 13.8182C15.3333 13.3161 15.7403 12.9091 16.2424 12.9091Z" fill="#8C8C8C"/>
</svg>
