<svg width="24" height="24" viewBox="0 0 24 24" fill="none" xmlns="http://www.w3.org/2000/svg">
<path fill-rule="evenodd" clip-rule="evenodd" d="M10.3333 6.16667C10.3333 8.20625 6.16667 13.3004 6.16667 13.3004C6.16667 13.3004 2 8.20667 2 6.16667C2 3.86917 3.86917 2 6.16667 2C8.46417 2 10.3333 3.86917 10.3333 6.16667ZM8.66667 6.16667C8.66667 4.78792 7.54542 3.66667 6.16667 3.66667C4.78792 3.66667 3.66667 4.78792 3.66667 6.16667C3.66667 7.0625 4.97458 9.10917 6.16667 10.6642C7.35833 9.10792 8.66667 7.06083 8.66667 6.16667ZM13.6667 14.9167C13.6667 12.6192 15.5358 10.75 17.8333 10.75C20.1308 10.75 22 12.6192 22 14.9167C22 16.9567 17.8333 22.0504 17.8333 22.0504C17.8333 22.0504 13.6667 16.9567 13.6667 14.9167ZM15.3333 14.9167C15.3333 15.8125 16.6413 17.8592 17.8333 19.4142C19.025 17.8579 20.3333 15.8108 20.3333 14.9167C20.3333 13.5379 19.2121 12.4167 17.8333 12.4167C16.4546 12.4167 15.3333 13.5379 15.3333 14.9167ZM18.6667 14.0833H17V15.75H18.6667V14.0833ZM5.33333 5.33333H7V7H5.33333V5.33333Z" fill="#8C8C8C"/>
<path d="M3.66667 19.0833C3.66667 18.3942 4.2275 17.8333 4.91667 17.8333H9.08333C10.6912 17.8333 12 16.5246 12 14.9167C12 13.3088 10.6912 12 9.08333 12H8.66667V13.6667H9.08333C9.7725 13.6667 10.3333 14.2275 10.3333 14.9167C10.3333 15.6058 9.7725 16.1667 9.08333 16.1667H4.91667C3.30875 16.1667 2 17.4754 2 19.0833C2 20.6912 3.30875 22 4.91667 22H15.3333V20.3333H4.91667C4.2275 20.3333 3.66667 19.7725 3.66667 19.0833Z" fill="#8C8C8C"/>
</svg>
