<svg width="24" height="24" viewBox="0 0 24 24" fill="none" xmlns="http://www.w3.org/2000/svg">
<path fill-rule="evenodd" clip-rule="evenodd" d="M22 8.27343C22 11.1812 19.6343 13.5469 16.7266 13.5469C13.8188 13.5469 11.4531 11.1812 11.4531 8.27343C11.4531 5.36566 13.8188 3 16.7266 3C19.6343 3 22 5.36566 22 8.27343ZM20.8281 8.27343C20.8281 6.01183 18.9881 4.17187 16.7266 4.17187C14.465 4.17187 12.625 6.01183 12.625 8.27343C12.625 10.535 14.465 12.375 16.7266 12.375C18.9881 12.375 20.8281 10.535 20.8281 8.27343ZM17.8561 7.99597C17.5434 7.82908 17.1825 7.76212 16.8336 7.69737L16.8334 7.69734L16.8326 7.69718C16.5714 7.64872 16.3015 7.59862 16.1488 7.51711C16.0708 7.47546 16.0708 7.46468 16.0708 7.39453C16.0708 7.353 16.1384 7.27722 16.2676 7.21261C16.5875 7.05269 17.0387 7.06578 17.2734 7.24183C17.5324 7.43601 17.8996 7.38351 18.0937 7.12464C18.2879 6.86578 18.2355 6.49851 17.9765 6.30433C17.7838 6.1598 17.5564 6.05652 17.3125 5.99507V5.8516C17.3125 5.528 17.0501 5.26566 16.7265 5.26566C16.403 5.26566 16.1406 5.528 16.1406 5.8516V6.01265C16.0041 6.0505 15.8708 6.10086 15.7435 6.16449C15.2068 6.43285 14.8989 6.88121 14.8989 7.39457C14.8989 7.90734 15.1403 8.30722 15.597 8.55097C15.9097 8.71786 16.2705 8.78482 16.6195 8.84958L16.6197 8.8496L16.6203 8.84972L16.6203 8.84973C16.8816 8.8982 17.1516 8.94831 17.3043 9.02984C17.3823 9.07144 17.3823 9.08226 17.3823 9.15238C17.3823 9.19253 17.313 9.26984 17.1845 9.3341C16.8648 9.49394 16.414 9.48089 16.1797 9.30511C15.9208 9.11093 15.5535 9.16347 15.3594 9.4223C15.1652 9.6812 15.2177 10.0485 15.4765 10.2426C15.6692 10.3871 15.8967 10.4903 16.1406 10.5518V10.6953C16.1406 11.0189 16.403 11.2813 16.7265 11.2813C17.0501 11.2813 17.3125 11.0189 17.3125 10.6953V10.5334C17.4486 10.4956 17.5817 10.4457 17.7086 10.3822C18.246 10.1135 18.5542 9.66527 18.5542 9.15234C18.5542 8.63956 18.3128 8.23972 17.8561 7.99597ZM19.221 14.2477L16.6709 16.1311C16.4222 16.3088 16.1496 16.4438 15.8643 16.5351C16.0158 16.0965 15.9901 15.6264 15.7894 15.2058C15.5819 14.7709 15.216 14.4475 14.7576 14.2947L9.66722 12.6105C8.13519 12.0997 6.07429 12.3206 4.69844 13.5469H2.58594C2.26234 13.5469 2 13.8092 2 14.1328V19.9922C2 20.3158 2.26234 20.5781 2.58594 20.5781H4.92968C5.25328 20.5781 5.51562 20.3158 5.51562 19.9922V19.5543L10.1113 20.5987C10.9494 20.7905 11.8084 20.8912 12.6032 20.8912C12.6395 20.8912 12.6757 20.891 12.7118 20.8906C14.9357 20.8646 17.0836 20.1563 18.9232 18.8424L21.2644 17.1084C22.0839 16.523 22.2446 15.3666 21.6153 14.58C21.0322 13.8512 19.9805 13.7052 19.221 14.2477ZM4.34375 19.4062H3.17187V14.7187H4.34375V19.4062ZM20.5832 16.1548L18.2421 17.8888C16.5983 19.0628 14.6813 19.6956 12.6981 19.7188C11.9646 19.7274 11.1603 19.6366 10.3719 19.4562L5.51562 18.3526V14.3885C6.77812 13.2927 8.52105 13.4637 9.29785 13.7226L14.3882 15.4068C14.5406 15.4576 14.6626 15.5654 14.7317 15.7104C14.8009 15.8553 14.8079 16.018 14.7515 16.1683C14.6403 16.4648 14.3179 16.6186 14.0176 16.5185L14.0159 16.518L10.4258 15.3342C10.1185 15.2329 9.78722 15.3999 9.68585 15.7072C9.58452 16.0145 9.75152 16.3458 10.0588 16.4471L13.671 17.6382C14.9117 18.0518 16.2878 17.8448 17.352 17.0847L19.9022 15.2013C20.1553 15.0205 20.5058 15.0691 20.7002 15.3121C20.9096 15.5738 20.8581 15.9585 20.5832 16.1548Z" fill="#8C8C8C"/>
</svg>
