<svg width="24" height="24" viewBox="0 0 24 24" fill="none" xmlns="http://www.w3.org/2000/svg">
<path fill-rule="evenodd" clip-rule="evenodd" d="M21.2247 2.60318L21.2471 2.62349C22.1899 3.48098 22.2563 4.94186 21.3953 5.88027L13.1216 14.8989C13.0463 14.9811 12.9544 15.0465 12.852 15.0911L10.0352 16.3181C9.89305 16.38 9.74318 16.4114 9.58985 16.4114H9.5898C9.23531 16.4114 8.89915 16.2392 8.69049 15.9509C8.48348 15.6647 8.42702 15.2934 8.5395 14.9577L9.51236 12.0539C9.54772 11.9483 9.60492 11.8513 9.68033 11.7691L17.954 2.75048C18.3915 2.27356 19.0147 2 19.6637 2C20.2427 2 20.7971 2.21423 21.2247 2.60318ZM10.9743 12.7174L10.4035 14.4213L12.0563 13.7013L12.1045 13.6488L11.0225 12.6649L10.9743 12.7174ZM13.182 12.4743L20.2157 4.80738C20.4824 4.51659 20.4619 4.0639 20.1698 3.79829L20.1475 3.77798C20.0147 3.65718 19.843 3.5908 19.6638 3.5908C19.4595 3.5908 19.2712 3.67341 19.1337 3.82337L12.1 11.4904L13.182 12.4743ZM18.8432 10.1336C18.8432 9.69437 19.2008 9.33824 19.642 9.33824C20.0832 9.33824 20.4409 9.69437 20.4408 10.1336V16.8864C20.4408 18.8789 18.8127 20.5 16.8115 20.5H7.12935C5.12814 20.5 3.5 18.8789 3.5 16.8864V7.32456C3.5 5.33203 5.12809 3.71096 7.12935 3.71096H14.1374C14.5785 3.71096 14.9362 4.06709 14.9362 4.50636C14.9362 4.94563 14.5785 5.30176 14.1374 5.30176H7.12935C6.00913 5.30176 5.09773 6.2092 5.09773 7.32456V16.8864C5.09773 18.0018 6.00907 18.9092 7.12935 18.9092H16.8115C17.9318 18.9092 18.8432 18.0018 18.8432 16.8864V10.1336Z" fill="#8C8C8C"/>
</svg>
