<svg width="24" height="24" viewBox="0 0 24 24" fill="none" xmlns="http://www.w3.org/2000/svg">
<path d="M19.1518 13.3725C19.152 13.3667 19.152 13.3609 19.152 13.3552C19.152 12.8729 18.9928 12.4272 18.7241 12.0678V4.155C18.724 2.96691 17.7573 2.0002 16.5691 2C15.3809 2 14.4142 2.96676 14.4142 4.15508V8.30039C14.1192 8.1484 13.7852 8.06199 13.4311 8.06191C12.813 8.06191 12.2552 8.32387 11.8619 8.74215C11.4686 8.32398 10.9109 8.06203 10.293 8.06191C9.67488 8.06191 9.11715 8.32387 8.72387 8.74211C8.33059 8.32398 7.77293 8.06203 7.155 8.06191C5.96672 8.06191 5 9.02867 5 10.217V13.3551L5.00008 14.9241C5.00008 18.8258 8.1743 22 12.076 22C15.9777 22 19.1519 18.8258 19.1519 14.9241L19.1518 13.3725ZM15.5861 4.15508C15.5861 3.61293 16.0271 3.17188 16.569 3.17188C17.1111 3.17195 17.5521 3.61305 17.5522 4.15508V11.2731C17.375 11.2258 17.1889 11.2002 16.997 11.2002H15.5861V10.2169V4.15508ZM13.4311 9.23379C13.9731 9.23391 14.4141 9.675 14.4142 10.217V11.2002L12.448 11.2003V10.217C12.448 9.67484 12.8891 9.23379 13.4311 9.23379ZM10.2929 9.23379C10.835 9.23391 11.2761 9.675 11.2761 10.217L11.2761 11.2002L10.293 11.2003C9.93895 11.2003 9.60496 11.2866 9.30996 11.4386V10.217C9.30996 9.67484 9.7509 9.23379 10.2929 9.23379ZM6.17188 10.217C6.17188 9.67484 6.61289 9.23379 7.15488 9.23379C7.69695 9.23391 8.13801 9.675 8.13805 10.217V13.355C8.13801 13.8971 7.69695 14.3381 7.15496 14.3381C6.61293 14.3381 6.17191 13.897 6.17188 13.355V13.355V10.217ZM12.076 20.8281C8.9391 20.8281 6.36617 18.3689 6.18285 15.2773C6.47512 15.4257 6.80527 15.51 7.15492 15.51H7.15496C7.77297 15.51 8.33066 15.2481 8.72398 14.8299C9.11727 15.2481 9.675 15.51 10.293 15.51H15.4279C15.7515 15.51 16.0138 15.2477 16.0138 14.9241C16.0138 14.6005 15.7515 14.3382 15.4279 14.3382H10.293C9.75094 14.3382 9.30992 13.8971 9.30992 13.3551C9.30996 12.8131 9.75098 12.3721 10.293 12.3721H11.8616H11.8619H11.862H11.862H11.862H11.8624L16.9969 12.3721C17.5368 12.3721 17.9764 12.8095 17.9801 13.3485C17.98 13.3539 17.9799 13.3594 17.9799 13.3649L17.98 14.9241C17.98 18.1796 15.3314 20.8281 12.076 20.8281Z" fill="#8C8C8C"/>
</svg>
