<svg width="24" height="24" viewBox="0 0 24 24" fill="none" xmlns="http://www.w3.org/2000/svg">
<path d="M20.2422 5.6875H17.8578C18.2264 5.1975 18.4453 4.58871 18.4453 3.92969C18.4453 2.31426 17.1311 1 15.5156 1C14.5425 1 13.825 1.34863 13.2575 2.09715C12.7827 2.7234 12.4355 3.59777 12 4.70254C11.5645 3.59773 11.2173 2.7234 10.7425 2.09715C10.175 1.34863 9.45746 1 8.48438 1C6.86895 1 5.55469 2.31426 5.55469 3.92969C5.55469 4.58871 5.77355 5.1975 6.14223 5.6875H3.75781C2.78855 5.6875 2 6.47605 2 7.44531V8.61719C2 9.38105 2.48988 10.0323 3.17188 10.2742V19.2422C3.17188 20.2114 3.96043 21 4.92969 21H19.0703C20.0396 21 20.8281 20.2114 20.8281 19.2422V10.2742C21.5101 10.0323 22 9.38105 22 8.61719V7.44531C22 6.47605 21.2114 5.6875 20.2422 5.6875ZM13.0755 5.16953C13.9732 2.89227 14.3144 2.17188 15.5156 2.17188C16.4849 2.17188 17.2734 2.96043 17.2734 3.92969C17.2734 4.89895 16.4849 5.6875 15.5156 5.6875H12.8706C12.9424 5.50723 13.0109 5.33367 13.0755 5.16953ZM8.48438 2.17188C9.68559 2.17188 10.0268 2.89227 10.9245 5.16953C10.9891 5.33367 11.0576 5.50723 11.1294 5.6875H8.48438C7.51512 5.6875 6.72656 4.89895 6.72656 3.92969C6.72656 2.96043 7.51512 2.17188 8.48438 2.17188ZM9.65625 19.8281H4.92969C4.6066 19.8281 4.34375 19.5653 4.34375 19.2422V10.375H9.65625V19.8281ZM9.65625 9.20312H3.75781C3.43473 9.20312 3.17188 8.94027 3.17188 8.61719V7.44531C3.17188 7.12223 3.43473 6.85938 3.75781 6.85938H9.65625V9.20312ZM13.1719 19.8281H10.8281V6.85938C10.9509 6.85938 12.4984 6.85938 13.1719 6.85938V19.8281ZM19.6562 19.2422C19.6562 19.5653 19.3934 19.8281 19.0703 19.8281H14.3438V10.375H19.6562V19.2422ZM20.8281 8.61719C20.8281 8.94027 20.5653 9.20312 20.2422 9.20312H14.3438V6.85938H20.2422C20.5653 6.85938 20.8281 7.12223 20.8281 7.44531V8.61719Z" fill="#8C8C8C" stroke="#8C8C8C" stroke-width="0.6"/>
</svg>
