<svg width="24" height="24" viewBox="0 0 24 24" fill="none" xmlns="http://www.w3.org/2000/svg">
<path fill-rule="evenodd" clip-rule="evenodd" d="M2 12C2 6.47998 6.47998 2 12 2C17.52 2 22 6.47998 22 12C22 17.52 17.52 22 12 22C6.47998 22 2 17.52 2 12ZM3.99997 12C3.99997 16.41 7.58998 20 12 20C16.41 20 20 16.41 20 12C20 7.58998 16.41 4.00001 12 4.00001C7.58998 4.00001 3.99997 7.58998 3.99997 12ZM12 5.99998C9.78997 5.99998 8 7.79 8 9.99996H10C10 8.89995 10.9 7.99995 12 7.99995C13.1 7.99995 14 8.9 14 10C14 10.8792 13.4202 11.3236 12.7704 11.8217C11.9421 12.4566 11 13.1787 11 15H13C13 13.9046 13.711 13.2833 14.4408 12.6456C15.21 11.9733 16 11.2829 16 10C16 7.79 14.21 5.99998 12 5.99998ZM13 16H11V18H13V16Z" fill="#8C8C8C"/>
</svg>
