<svg width="24" height="24" viewBox="0 0 24 24" fill="none" xmlns="http://www.w3.org/2000/svg">
<path fill-rule="evenodd" clip-rule="evenodd" d="M3.14286 11.4286C3.14286 6.22189 7.35429 2 12.5662 2C17.7781 2 22 6.22189 22 11.4286C22 16.6353 17.7781 20.8571 12.5662 20.8571C9.96286 20.8571 7.61097 19.799 5.90857 18.0914L7.39097 16.609C8.71617 17.9343 10.5443 18.7619 12.5714 18.7619C16.6205 18.7619 19.9047 15.4776 19.9047 11.4286C19.9047 7.37954 16.6205 4.09525 12.5714 4.09525C8.5224 4.09525 5.23811 7.37954 5.23811 11.4286H8.38097L4.15378 15.6609L4.08046 15.509L0 11.4286H3.14286ZM11.5238 12.4762V7.23811H13.0952V11.6905L16.7619 13.8643L16.0076 15.1371L11.5238 12.4762Z" fill="#8C8C8C"/>
</svg>
