<svg width="24" height="24" viewBox="0 0 24 24" fill="none" xmlns="http://www.w3.org/2000/svg">
<path fill-rule="evenodd" clip-rule="evenodd" d="M20.7775 2.20916C20.9942 2.01775 21.3027 1.97092 21.5667 2.08955C21.8304 2.20842 22 2.47065 22 2.75986V18.3727C22 20.3053 20.4277 21.8776 18.4951 21.8776C18.4376 21.8776 18.3804 21.8762 18.3235 21.8735V21.8776L5.50489 21.8776L5.38235 21.8776V21.8754C3.50628 21.8107 2 20.2642 2 18.3727V16.5834C2 16.1773 2.32918 15.8481 2.73531 15.8482H5.23532V2.7599C5.23532 2.47068 5.40493 2.20842 5.66864 2.08955C5.93263 1.97115 6.24145 2.01799 6.45786 2.20916L8.51693 4.03073L10.5785 2.18732C10.8576 1.93756 11.2794 1.93756 11.5586 2.18732L13.6177 4.0285L15.6765 2.18732C15.9557 1.93756 16.3777 1.93756 16.6569 2.18732L18.7184 4.03073L20.7775 2.20916ZM5.50489 20.407L15.6425 20.407C15.232 19.833 14.9902 19.1305 14.9902 18.3727V17.3188H3.47059V18.3727C3.47059 19.4942 4.38309 20.407 5.50489 20.407ZM18.4951 20.407C19.6167 20.407 20.5295 19.4942 20.5295 18.3727V4.39202L19.203 5.56554C18.9238 5.81233 18.5037 5.81136 18.2258 5.56284L16.1669 3.72166L14.1079 5.56284C13.8287 5.81261 13.4067 5.81261 13.1275 5.56284L11.0687 3.7219L9.00982 5.56307C8.73212 5.81159 8.31204 5.81284 8.03263 5.56577L6.70591 4.39198V15.8481H15.7255C16.1317 15.8481 16.4608 16.1773 16.4608 16.5834V18.3727C16.4608 19.4942 17.3736 20.407 18.4951 20.407ZM9.64709 8.56871H14.1814C14.5875 8.56871 14.9167 8.89789 14.9167 9.30402C14.9167 9.71016 14.5875 10.0393 14.1814 10.0393H9.64709C9.24095 10.0393 8.91177 9.71016 8.91177 9.30402C8.91177 8.89789 9.24095 8.56871 9.64709 8.56871ZM17.6128 12.0001H9.64709C9.24095 12.0001 8.91177 12.3293 8.91177 12.7354C8.91177 13.1415 9.24095 13.4707 9.64709 13.4707H17.6128C18.0189 13.4707 18.3481 13.1415 18.3481 12.7354C18.3481 12.3293 18.0189 12.0001 17.6128 12.0001Z" fill="#8C8C8C"/>
</svg>
