<svg width="24" height="24" viewBox="0 0 24 24" fill="none" xmlns="http://www.w3.org/2000/svg">
<path d="M16.7225 11.7284V6.67037C16.7225 4.08917 14.614 2 12.0328 2H11.9384C9.3675 2 7.27618 4.08145 7.27618 6.65191V11.8571C7.27618 12.3719 7.70122 12.7854 8.21643 12.7854H8.23533C8.75011 12.7854 9.17215 12.3719 9.17215 11.8571V6.6708C9.17215 5.13033 10.4168 3.89597 11.9573 3.89597H12.0328C13.5725 3.89597 14.8261 5.13033 14.8261 6.67037V10.2459C13.9765 9.81186 13.0148 9.56714 11.9972 9.56714C8.5642 9.56714 5.77992 12.3501 5.77992 15.7836C5.77992 19.217 8.56248 22 11.9959 22C15.4294 22 18.2201 19.2174 18.2201 15.7836C18.2192 14.2336 17.6375 12.8164 16.7225 11.7284ZM11.9951 17.5301C11.0303 17.5301 10.2485 16.7487 10.2485 15.7844C10.2485 14.8193 11.0303 14.0379 11.9951 14.0379C12.9598 14.0379 13.7412 14.8193 13.7412 15.7844C13.7416 16.7479 12.9598 17.5301 11.9951 17.5301Z" fill="#8C8C8C"/>
</svg>
