<svg width="24" height="24" viewBox="0 0 24 24" fill="none" xmlns="http://www.w3.org/2000/svg">
<path fill-rule="evenodd" clip-rule="evenodd" d="M13.875 19.5C14.7724 19.5 15.5 18.7725 15.5 17.875L15.5 17.5C15.5 16.8096 16.0597 16.25 16.75 16.25C17.4404 16.25 18 16.8096 18 17.5V18.7143C18 20.5289 16.5289 22 14.7143 22H7C4.79086 22 3 20.2091 3 18V6C3 3.79086 4.79086 2 7 2H14.7143C16.5289 2 18 3.47106 18 5.2857V6.49998C18 7.19033 17.4403 7.74997 16.75 7.74997C16.0596 7.74997 15.5 7.19033 15.5 6.49998V6.12498C15.5 5.22752 14.7724 4.49998 13.875 4.49998H7.49998C6.39541 4.49998 5.49998 5.39541 5.49998 6.49998V17.5C5.49998 18.6045 6.39541 19.5 7.49998 19.5H13.875ZM18.4824 8.24998C18.9705 7.76188 19.7619 7.76188 20.25 8.24998L24 12L20.25 15.75C19.7619 16.2381 18.9705 16.2381 18.4824 15.75C17.9943 15.2619 17.9943 14.4705 18.4824 13.9824L19.2148 13.25H12.7499V10.75H19.2148L18.4824 10.0176C17.9943 9.52945 17.9943 8.73808 18.4824 8.24998Z" fill="#8C8C8C"/>
</svg>
