<svg width="24" height="24" viewBox="0 0 24 24" fill="none" xmlns="http://www.w3.org/2000/svg">
<path d="M21.625 4.4375H2.375C1.61738 4.4375 1 5.05488 1 5.8125V18.1875C1 18.9465 1.61738 19.5625 2.375 19.5625H21.625C22.384 19.5625 23 18.9465 23 18.1875V5.8125C23 5.05488 22.384 4.4375 21.625 4.4375Z" fill="#3C6078"/>
<path d="M8.5625 16.8125H4.4375C4.058 16.8125 3.75 16.5045 3.75 16.125C3.75 15.7455 4.058 15.4375 4.4375 15.4375H8.5625C8.942 15.4375 9.25 15.7455 9.25 16.125C9.25 16.5045 8.942 16.8125 8.5625 16.8125Z" fill="#90A4AE"/>
<path d="M14.0625 12.6875C15.5813 12.6875 16.8125 11.4563 16.8125 9.9375C16.8125 8.41872 15.5813 7.1875 14.0625 7.1875C12.5437 7.1875 11.3125 8.41872 11.3125 9.9375C11.3125 11.4563 12.5437 12.6875 14.0625 12.6875Z" fill="#F44336"/>
<path d="M17.5 12.6875C19.0188 12.6875 20.25 11.4563 20.25 9.9375C20.25 8.41872 19.0188 7.1875 17.5 7.1875C15.9812 7.1875 14.75 8.41872 14.75 9.9375C14.75 11.4563 15.9812 12.6875 17.5 12.6875Z" fill="#FFC107"/>
</svg>
