<svg width="24" height="24" viewBox="0 0 24 24" fill="none" xmlns="http://www.w3.org/2000/svg">
<path fill-rule="evenodd" clip-rule="evenodd" d="M6.0005 3H8.4995C9.05347 3 9.50112 3.54459 9.5 4.21715V19.7842C9.5 20.4568 9.05235 21 8.4995 21H6.0005C5.44765 21 5 20.4554 5 19.7842V4.21715C5 3.54459 5.44765 3 6.0005 3ZM15.9002 3H18.3998C18.9525 3 19.3989 3.54459 19.4 4.21715V19.7842C19.4 20.4568 18.9525 21 18.3998 21H15.9002C15.3475 21 14.9 20.4554 14.9 19.7842V4.21715C14.9 3.54459 15.3487 3 15.9002 3Z" fill="#8C8C8C"/>
</svg>
