<svg width="24" height="24" viewBox="0 0 24 24" fill="none" xmlns="http://www.w3.org/2000/svg">
<path fill-rule="evenodd" clip-rule="evenodd" d="M4.84087 5H19.1591C20.7256 5 22 6.2744 22 7.84087V16.185C22 17.7515 20.7256 19.0259 19.1591 19.0259H4.84087C3.2744 19.0259 2 17.7515 2 16.185V7.84087C2 6.2744 3.2744 5 4.84087 5ZM19.1591 6.72923H4.84087C4.2279 6.72923 3.72922 7.2279 3.72922 7.84087V8.51333H20.2708V7.84087C20.2708 7.2279 19.7721 6.72923 19.1591 6.72923ZM4.84087 17.2967H19.1591C19.7721 17.2967 20.2708 16.798 20.2708 16.185V10.2426H3.72922V16.185C3.72922 16.798 4.2279 17.2967 4.84087 17.2967ZM5.93879 12.4658H7.25629C7.73381 12.4658 8.12091 12.8529 8.12091 13.3304C8.12091 13.8079 7.73381 14.195 7.25629 14.195H5.93879C5.46128 14.195 5.07418 13.8079 5.07418 13.3304C5.07418 12.8529 5.46128 12.4658 5.93879 12.4658Z" fill="#8C8C8C"/>
</svg>
