<svg width="24" height="24" viewBox="0 0 24 24" fill="none" xmlns="http://www.w3.org/2000/svg">
<path fill-rule="evenodd" clip-rule="evenodd" d="M17.6905 6.5H20.3333C21.2525 6.5 22 7.24746 22 8.16663V18.9999C22 19.9192 21.2525 20.6666 20.3333 20.6666H3.66668C2.74746 20.6666 2 19.9191 2 18.9999V8.16663C2 7.24746 2.74746 6.5 3.66668 6.5H6.30948C6.64355 6.5 6.95726 6.3698 7.19366 6.13379L8.7171 4.61035C9.11057 4.21687 9.63385 4 10.1905 4H13.8095C14.3661 4 14.8894 4.21687 15.2829 4.61035L16.8063 6.13379C17.0427 6.3698 17.3564 6.5 17.6905 6.5ZM6.99999 13.1666C6.99999 15.9238 9.24284 18.1666 12 18.1666C14.7571 18.1666 17 15.9238 17 13.1666C17 10.4095 14.7571 8.16663 12 8.16663C9.24284 8.16663 6.99999 10.4095 6.99999 13.1666ZM17.8333 9.83331C17.8333 10.2927 18.2073 10.6666 18.6666 10.6666C19.126 10.6666 19.5 10.2927 19.5 9.83331C19.5 9.37394 19.126 8.99999 18.6666 8.99999C18.2073 8.99999 17.8333 9.37394 17.8333 9.83331ZM16.1667 13.1666C16.1667 15.4678 14.3012 17.3333 12 17.3333C9.69879 17.3333 7.83331 15.4678 7.83331 13.1666C7.83331 10.8654 9.69879 8.99995 12 8.99995C14.3012 8.99995 16.1667 10.8654 16.1667 13.1666Z" fill="#8C8C8C"/>
</svg>
