<svg width="56" height="60" viewBox="0 0 56 60" fill="none" xmlns="http://www.w3.org/2000/svg">
<ellipse cx="28" cy="47.6" rx="8.8" ry="1.6" fill="black" fill-opacity="0.15"/>
<g filter="url(#filter0_dd_1199_7680)">
<path d="M48 23.907C48 33.8864 41.6225 41.8756 32 43.3163C31.0214 43.4628 28 47.6 28 47.6C28 47.6 24.9786 43.4628 24 43.3163C14.3775 41.8756 8 33.8864 8 23.907C8 12.9127 16.9543 4 28 4C39.0457 4 48 12.9127 48 23.907Z" fill="#EEE6FF"/>
<path d="M28.0969 44.2323C28.0644 44.2713 28.0321 44.3102 28 44.349C27.9679 44.3102 27.9356 44.2713 27.9031 44.2323C27.4472 43.6856 26.9259 43.0927 26.4307 42.6122C26.1853 42.374 25.9092 42.1269 25.6229 41.9204C25.3985 41.7585 24.9172 41.4313 24.2961 41.3383C15.7428 40.0577 10 32.9899 10 23.907C10 14.026 18.0501 6 28 6C37.9499 6 46 14.026 46 23.907C46 32.9899 40.2572 40.0577 31.7039 41.3383C31.0828 41.4313 30.6015 41.7585 30.3771 41.9204C30.0908 42.1269 29.8147 42.374 29.5693 42.6122C29.0741 43.0927 28.5528 43.6856 28.0969 44.2323Z" stroke="white" stroke-width="4"/>
</g>
<path fill-rule="evenodd" clip-rule="evenodd" d="M30.3518 14.816C30.0425 14.816 29.7918 15.0667 29.7918 15.376C29.7918 15.6853 30.0425 15.936 30.3518 15.936L32.0318 15.936L33.7396 24.9631L31.6962 28.7105H22.0878C21.6739 28.3913 21.156 28.2006 20.5941 28.2006C19.243 28.2007 18.1438 29.2999 18.1438 30.6509C18.1438 32.0021 19.243 33.1013 20.5941 33.1013C21.3326 33.1013 21.9952 32.7724 22.4448 32.254H29.2984C30.3964 32.254 31.4066 31.6542 31.9323 30.6902L34.0785 26.7542L34.3838 28.368L34.3952 28.3657L34.4044 28.4154C33.5511 28.799 32.9552 29.6564 32.9552 30.6509C32.9552 32.0021 34.0544 33.1013 35.4055 33.1013C36.7566 33.1013 37.8558 32.0021 37.8558 30.6509C37.8558 29.345 36.8287 28.2746 35.54 28.2045L35.4678 27.9476L33.2638 15.936L33.7118 15.936C34.0211 15.936 34.2718 15.6853 34.2718 15.376C34.2718 15.0667 34.0211 14.816 33.7118 14.816H30.3518ZM20.5941 31.9463C19.8798 31.9463 19.2988 31.3652 19.2988 30.6509C19.2988 29.9367 19.8798 29.3556 20.5941 29.3556C21.3083 29.3556 21.8894 29.9367 21.8894 30.6509C21.8893 31.3652 21.3083 31.9463 20.5941 31.9463ZM23.0026 31.099C23.0296 30.9537 23.0443 30.804 23.0443 30.6509C23.0443 30.3762 22.9982 30.1123 22.9145 29.8656H31.0664L30.9622 30.0565C30.6118 30.6992 29.9383 31.099 29.2063 31.099H23.0026ZM35.4055 31.9463C34.6913 31.9463 34.1102 31.3652 34.1102 30.6509C34.1102 29.9367 34.6913 29.3556 35.4055 29.3556C36.1197 29.3556 36.7008 29.9367 36.7008 30.6509C36.7008 31.3652 36.1197 31.9463 35.4055 31.9463Z" fill="#310099"/>
<rect x="12.8" y="6.39999" width="6.4" height="12.8" fill="white"/>
<rect x="14.3999" y="4.8" width="3.2" height="1.6" fill="white"/>
<path d="M20 7.59903C20 6.71537 19.2837 6 18.4 6H17.7778V4.5C17.7778 4.224 17.5787 4 17.3333 4L14.6667 4C14.4213 4 14.2222 4.224 14.2222 4.5V6L13.6 6C12.7163 6 12 6.71529 12 7.59895C12 10.281 12 15.6616 12 18.405C12 19.2886 12.7163 20 13.6 20H18.4C19.2837 20 20 19.2886 20 18.4049C20 15.6629 20 10.2815 20 7.59903ZM15.1111 5H16.8889V6L15.1111 6V5ZM19.1111 18.2C19.1111 18.6418 18.7529 19 18.3111 19H13.6889C13.2471 19 12.8889 18.6418 12.8889 18.2L12.8889 7.8C12.8889 7.35817 13.2471 7 13.6889 7L18.3111 7C18.7529 7 19.1111 7.35817 19.1111 7.8L19.1111 18.2Z" fill="black"/>
<path d="M18.4001 8.26001C18.4001 7.98387 18.1762 7.76001 17.9001 7.76001L14.1001 7.76001C13.824 7.76001 13.6001 7.98302 13.6001 8.25916C13.6001 10.1495 13.6001 15.9332 13.6001 17.665C13.6001 17.9411 13.824 18.16 14.1001 18.16H17.9002C18.1763 18.16 18.4002 17.9362 18.4002 17.66L18.4001 8.26001Z" fill="#2BC605"/>
<defs>
<filter id="filter0_dd_1199_7680" x="0" y="0" width="56" height="59.6" filterUnits="userSpaceOnUse" color-interpolation-filters="sRGB">
<feFlood flood-opacity="0" result="BackgroundImageFix"/>
<feColorMatrix in="SourceAlpha" type="matrix" values="0 0 0 0 0 0 0 0 0 0 0 0 0 0 0 0 0 0 127 0" result="hardAlpha"/>
<feOffset dy="4"/>
<feGaussianBlur stdDeviation="4"/>
<feColorMatrix type="matrix" values="0 0 0 0 0 0 0 0 0 0 0 0 0 0 0 0 0 0 0.07 0"/>
<feBlend mode="normal" in2="BackgroundImageFix" result="effect1_dropShadow_1199_7680"/>
<feColorMatrix in="SourceAlpha" type="matrix" values="0 0 0 0 0 0 0 0 0 0 0 0 0 0 0 0 0 0 127 0" result="hardAlpha"/>
<feOffset dy="1"/>
<feGaussianBlur stdDeviation="1.5"/>
<feColorMatrix type="matrix" values="0 0 0 0 0 0 0 0 0 0 0 0 0 0 0 0 0 0 0.2 0"/>
<feBlend mode="normal" in2="effect1_dropShadow_1199_7680" result="effect2_dropShadow_1199_7680"/>
<feBlend mode="normal" in="SourceGraphic" in2="effect2_dropShadow_1199_7680" result="shape"/>
</filter>
</defs>
</svg>
