<svg width="24" height="24" viewBox="0 0 24 24" fill="none" xmlns="http://www.w3.org/2000/svg">
<path d="M12.0004 2C6.47793 2 2 6.47705 2 12C2 17.523 6.47749 22 12.0004 22C17.5238 22 22.0009 17.523 22.0009 12C22.0009 6.47705 17.5238 2 12.0004 2ZM12.0004 4.99012C13.8278 4.99012 15.3086 6.47134 15.3086 8.29783C15.3086 10.1248 13.8278 11.6055 12.0004 11.6055C10.174 11.6055 8.69317 10.1248 8.69317 8.29783C8.69317 6.47134 10.174 4.99012 12.0004 4.99012ZM11.9982 19.3855C10.1757 19.3855 8.50648 18.7217 7.21898 17.6231C6.90534 17.3556 6.72436 16.9633 6.72436 16.5517C6.72436 14.6993 8.22359 13.2168 10.0764 13.2168H13.9253C15.7786 13.2168 17.2721 14.6993 17.2721 16.5517C17.2721 16.9638 17.092 17.3552 16.7779 17.6227C15.4909 18.7217 13.8212 19.3855 11.9982 19.3855Z" fill="#8C8C8C"/>
</svg>
