<svg width="24" height="24" viewBox="0 0 24 24" fill="none" xmlns="http://www.w3.org/2000/svg">
<path fill-rule="evenodd" clip-rule="evenodd" d="M18.191 14.4377C18.309 14.4194 18.4315 14.4564 18.523 14.5354C18.6142 14.6148 18.6667 14.7295 18.6667 14.8503V17.8333C18.6667 20.1307 16.7974 22 14.5 22H10.6377C9.26035 22 7.94766 21.4824 6.94141 20.5429L2.13223 16.0548C2.04801 15.9758 2 15.8655 2 15.75V15.4318C2 14.4585 2.79184 13.6667 3.76512 13.6667C4.03773 13.6667 4.31074 13.731 4.55449 13.853L7.23027 15.1909C7.41664 15.2849 7.57613 15.2096 7.63555 15.1726C7.69496 15.136 7.83332 15.0282 7.83332 14.8182V3.66668C7.83332 2.74746 8.58082 2 9.5 2C10.4192 2 11.1667 2.74746 11.1667 3.66668V9.13824L11.2489 9.08332C11.2729 9.06742 11.362 9.02309 11.3888 9.0125C11.515 8.93969 11.6688 8.93805 11.797 9.00723C11.9247 9.07684 12.0069 9.20867 12.0143 9.35352C12.1567 12.2396 14.5301 14.5 17.4167 14.5C17.6486 14.5 17.8948 14.48 18.191 14.4377ZM12.8334 9.08332C12.8334 6.55605 14.8894 4.5 17.4167 4.5C19.944 4.5 22 6.55605 22 9.08332C22 11.6106 19.944 13.6666 17.4167 13.6666C14.8894 13.6666 12.8334 11.6106 12.8334 9.08332ZM18.6667 10.75C18.7733 10.75 18.8799 10.7093 18.9613 10.6279C19.124 10.4652 19.124 10.2015 18.9613 10.0387L17.8333 8.91078V6.58332C17.8333 6.35301 17.647 6.16664 17.4167 6.16664C17.1863 6.16664 17 6.35301 17 6.58332V9.08332C17 9.19402 17.0439 9.2998 17.122 9.37793L18.372 10.6279C18.4535 10.7093 18.5601 10.75 18.6667 10.75Z" fill="#8C8C8C"/>
</svg>
