<svg width="24" height="24" viewBox="0 0 24 24" fill="none" xmlns="http://www.w3.org/2000/svg">
<path fill-rule="evenodd" clip-rule="evenodd" d="M19.8029 16.0942C18.5428 15.0292 17.8203 13.4725 17.8203 11.8233V9.5C17.8203 6.56757 15.6419 4.14005 12.8203 3.7334V2.83328C12.8203 2.37247 12.4469 2 11.987 2C11.5269 2 11.1536 2.37247 11.1536 2.83328V3.7334C8.33115 4.14005 6.15356 6.56757 6.15356 9.5V11.8233C6.15356 13.4725 5.43106 15.0292 4.16367 16.1008C3.83942 16.3784 3.65356 16.7816 3.65356 17.2083C3.65356 18.0126 4.30771 18.6667 5.112 18.6667H18.862C19.6661 18.6667 20.3203 18.0126 20.3203 17.2083C20.3203 16.7816 20.1344 16.3784 19.8029 16.0942ZM2.82031 10.235C2.82031 10.6951 3.1937 11.0683 3.65359 11.0683C4.11365 11.0683 4.48703 10.6951 4.48703 10.235C4.48703 7.89753 5.39691 5.69996 7.04944 4.04743C7.37537 3.72166 7.37537 3.19508 7.04944 2.86915C6.72366 2.54337 6.19693 2.54337 5.87115 2.86915C3.90369 4.83662 2.82031 7.45258 2.82031 10.235ZM19.487 10.235C19.487 10.6951 19.8602 11.0683 20.3203 11.0683C20.7803 11.0683 21.1536 10.6951 21.1536 10.235C21.1536 7.45258 20.0704 4.83662 18.1027 2.86915C17.777 2.54337 17.2502 2.54337 16.9244 2.86915C16.5987 3.19508 16.5987 3.72166 16.9244 4.04743C18.577 5.70087 19.487 7.89753 19.487 10.235ZM15.0487 19.5C14.7586 20.9241 13.4961 22 11.987 22C10.4778 22 9.21527 20.9241 8.92535 19.5H15.0487Z" fill="#8C8C8C"/>
</svg>
