<svg width="24" height="24" viewBox="0 0 24 24" fill="none" xmlns="http://www.w3.org/2000/svg">
<path fill-rule="evenodd" clip-rule="evenodd" d="M14.7907 3.86043C14.7907 4.8837 13.9535 5.72091 12.9302 5.72091C11.907 5.72091 11.0698 4.88375 11.0698 3.86048C11.0698 2.83721 11.907 2 12.9302 2C13.9535 2 14.7907 2.83721 14.7907 3.86043ZM18.0465 10.8372V12.6976C16 12.6976 14.186 11.7674 12.9768 10.2791L12.4186 13.0698L14.3256 14.9767V22H12.4651V16.4186L10.4651 14.5581L8.8372 22H6.88371L9.44186 8.88372L7.81397 9.5814V12.6977H5.95349V8.32558L10.8372 6.32557C11.0698 6.23256 11.3023 6.18604 11.5349 6.18604C12.186 6.18604 12.7907 6.51163 13.1162 7.06973L14 8.55808C14.8372 9.90695 16.3255 10.8372 18.0465 10.8372Z" fill="#8C8C8C"/>
</svg>
