<svg width="24" height="24" viewBox="0 0 24 24" fill="none" xmlns="http://www.w3.org/2000/svg">
<path fill-rule="evenodd" clip-rule="evenodd" d="M14.52 2.16C14.1886 2.16 13.92 2.42863 13.92 2.76C13.92 3.09137 14.1886 3.36 14.52 3.36L16.32 3.36L18.1498 13.0319L15.9605 17.047H5.66569C5.2223 16.7049 4.66736 16.5007 4.06532 16.5007C2.61769 16.5007 1.44 17.6784 1.44 19.126C1.44 20.5736 2.61769 21.7514 4.06532 21.7514C4.85653 21.7514 5.56653 21.399 6.04825 20.8436H13.5186C14.6166 20.8436 15.6268 20.2438 16.1525 19.2798L18.5129 14.9509L18.84 16.68L18.8522 16.6776L18.8621 16.7308C17.9479 17.1418 17.3094 18.0605 17.3094 19.126C17.3094 20.5736 18.4871 21.7514 19.9347 21.7514C21.3823 21.7514 22.56 20.5736 22.56 19.126C22.56 17.7268 21.4596 16.5799 20.0788 16.5048L20.0014 16.2296L17.64 3.36L18.12 3.36C18.4514 3.36 18.72 3.09137 18.72 2.76C18.72 2.42863 18.4514 2.16 18.12 2.16H14.52ZM4.06532 20.5139C3.30005 20.5139 2.6775 19.8913 2.6775 19.126C2.6775 18.3608 3.30005 17.7382 4.06532 17.7382C4.83059 17.7382 5.45313 18.3608 5.45313 19.126C5.45309 19.8913 4.83055 20.5139 4.06532 20.5139ZM6.64583 19.6061C6.67475 19.4504 6.69059 19.2901 6.69059 19.126C6.69059 18.8317 6.64117 18.5489 6.55145 18.2845H15.2856L15.1334 18.5636C14.783 19.2062 14.1095 19.6061 13.3775 19.6061H6.64583ZM19.9347 20.5139C19.1695 20.5139 18.5469 19.8913 18.5469 19.126C18.5469 18.3608 19.1695 17.7382 19.9347 17.7382C20.6999 17.7382 21.3225 18.3608 21.3225 19.126C21.3225 19.8913 20.6999 20.5139 19.9347 20.5139Z" fill="black"/>
</svg>
