<svg width="24" height="24" viewBox="0 0 24 24" fill="none" xmlns="http://www.w3.org/2000/svg">
<path fill-rule="evenodd" clip-rule="evenodd" d="M12.5 2.6C12.5 2.26863 12.7686 2 13.1 2H16.7C17.0314 2 17.3 2.26863 17.3 2.6C17.3 2.93137 17.0314 3.2 16.7 3.2H15.5678L18.413 16.0574C18.6028 16.0197 18.7991 16 19 16C20.6569 16 22 17.3431 22 19C22 20.6569 20.6569 22 19 22C17.3431 22 16 20.6569 16 19C16 17.9022 16.5896 16.9422 17.4695 16.4192L17.105 14.7723L13.9871 18.5831C13.5123 19.1634 12.8021 19.5 12.0522 19.5H7.95852C7.72048 20.9189 6.4865 22 5 22C3.34315 22 2 20.6569 2 19C2 17.3431 3.34315 16 5 16C5.8885 16 6.68679 16.3863 7.23611 17H13.9903L16.83 13.5293L14.5443 3.2H13.1C12.7686 3.2 12.5 2.93137 12.5 2.6ZM12.0522 18.5H7.95852C7.92965 18.3279 7.88613 18.1608 7.82929 18H13.1703C12.8864 18.3174 12.4801 18.5 12.0522 18.5ZM6.8 19C6.8 19.9941 5.99411 20.8 5 20.8C4.00589 20.8 3.2 19.9941 3.2 19C3.2 18.0059 4.00589 17.2 5 17.2C5.99411 17.2 6.8 18.0059 6.8 19ZM20.8 19C20.8 19.9941 19.9941 20.8 19 20.8C18.0059 20.8 17.2 19.9941 17.2 19C17.2 18.0059 18.0059 17.2 19 17.2C19.9941 17.2 20.8 18.0059 20.8 19Z" fill="black"/>
</svg>
