<svg width="56" height="60" viewBox="0 0 56 60" fill="none" xmlns="http://www.w3.org/2000/svg">
<ellipse cx="28.0001" cy="47.6" rx="8.8" ry="1.6" fill="black" fill-opacity="0.15"/>
<g filter="url(#filter0_dd_1417_3088)">
<path d="M48 23.907C48 33.8864 41.6225 41.8756 32 43.3163C31.0214 43.4628 28 47.6 28 47.6C28 47.6 24.9786 43.4628 24 43.3163C14.3775 41.8756 8 33.8864 8 23.907C8 12.9127 16.9543 4 28 4C39.0457 4 48 12.9127 48 23.907Z" fill="#310099"/>
</g>
<path fill-rule="evenodd" clip-rule="evenodd" d="M30.3519 14.816C30.0426 14.816 29.7919 15.0667 29.7919 15.376C29.7919 15.6853 30.0426 15.936 30.3519 15.936L32.0319 15.936L33.7398 24.9631L31.6963 28.7105H22.0879C21.6741 28.3913 21.1561 28.2006 20.5942 28.2006C19.2431 28.2007 18.1439 29.2999 18.1439 30.6509C18.1439 32.0021 19.2431 33.1013 20.5942 33.1013C21.3327 33.1013 21.9953 32.7724 22.4449 32.254H29.2985C30.3965 32.254 31.4068 31.6542 31.9324 30.6902L34.0786 26.7542L34.3839 28.368L34.3953 28.3657L34.4045 28.4154C33.5513 28.799 32.9553 29.6564 32.9553 30.6509C32.9553 32.0021 34.0545 33.1013 35.4056 33.1013C36.7567 33.1013 37.8559 32.0021 37.8559 30.6509C37.8559 29.345 36.8289 28.2746 35.5401 28.2045L35.4679 27.9476L33.2639 15.936L33.7119 15.936C34.0212 15.936 34.2719 15.6853 34.2719 15.376C34.2719 15.0667 34.0212 14.816 33.7119 14.816H30.3519ZM20.5942 31.9463C19.88 31.9463 19.2989 31.3652 19.2989 30.6509C19.2989 29.9367 19.88 29.3556 20.5942 29.3556C21.3085 29.3556 21.8895 29.9367 21.8895 30.6509C21.8895 31.3652 21.3084 31.9463 20.5942 31.9463ZM23.0027 31.099C23.0297 30.9537 23.0445 30.804 23.0445 30.6509C23.0445 30.3762 22.9983 30.1123 22.9146 29.8656H31.0665L30.9624 30.0565C30.6119 30.6992 29.9384 31.099 29.2065 31.099H23.0027ZM35.4056 31.9463C34.6914 31.9463 34.1103 31.3652 34.1103 30.6509C34.1103 29.9367 34.6914 29.3556 35.4056 29.3556C36.1198 29.3556 36.7009 29.9367 36.7009 30.6509C36.7009 31.3652 36.1198 31.9463 35.4056 31.9463Z" fill="white"/>
<rect x="12.8" y="6.39999" width="6.4" height="12.8" fill="white"/>
<rect x="14.4" y="4.8" width="3.2" height="1.6" fill="white"/>
<path d="M20 7.59903C20 6.71537 19.2837 6 18.4 6H17.7778V4.5C17.7778 4.224 17.5787 4 17.3333 4L14.6667 4C14.4213 4 14.2222 4.224 14.2222 4.5V6L13.6 6C12.7163 6 12 6.71529 12 7.59895C12 10.281 12 15.6616 12 18.405C12 19.2886 12.7163 20 13.6 20H18.4C19.2837 20 20 19.2886 20 18.4049C20 15.6629 20 10.2815 20 7.59903ZM15.1111 5H16.8889V6L15.1111 6V5ZM19.1111 18.2C19.1111 18.6418 18.7529 19 18.3111 19H13.6889C13.2471 19 12.8889 18.6418 12.8889 18.2L12.8889 7.8C12.8889 7.35817 13.2471 7 13.6889 7L18.3111 7C18.7529 7 19.1111 7.35817 19.1111 7.8L19.1111 18.2Z" fill="black"/>
<path d="M18.4 8.26001C18.4 7.98387 18.1761 7.76001 17.9 7.76001L14.1 7.76001C13.8238 7.76001 13.6 7.98302 13.6 8.25916C13.6 10.1495 13.6 15.9332 13.6 17.665C13.6 17.9411 13.8239 18.16 14.1 18.16H17.9C18.1762 18.16 18.4 17.9362 18.4 17.66L18.4 8.26001Z" fill="#2BC605"/>
<defs>
<filter id="filter0_dd_1417_3088" x="0" y="0" width="56" height="59.6" filterUnits="userSpaceOnUse" color-interpolation-filters="sRGB">
<feFlood flood-opacity="0" result="BackgroundImageFix"/>
<feColorMatrix in="SourceAlpha" type="matrix" values="0 0 0 0 0 0 0 0 0 0 0 0 0 0 0 0 0 0 127 0" result="hardAlpha"/>
<feOffset dy="4"/>
<feGaussianBlur stdDeviation="4"/>
<feColorMatrix type="matrix" values="0 0 0 0 0 0 0 0 0 0 0 0 0 0 0 0 0 0 0.07 0"/>
<feBlend mode="normal" in2="BackgroundImageFix" result="effect1_dropShadow_1417_3088"/>
<feColorMatrix in="SourceAlpha" type="matrix" values="0 0 0 0 0 0 0 0 0 0 0 0 0 0 0 0 0 0 127 0" result="hardAlpha"/>
<feOffset dy="1"/>
<feGaussianBlur stdDeviation="1.5"/>
<feColorMatrix type="matrix" values="0 0 0 0 0 0 0 0 0 0 0 0 0 0 0 0 0 0 0.2 0"/>
<feBlend mode="normal" in2="effect1_dropShadow_1417_3088" result="effect2_dropShadow_1417_3088"/>
<feBlend mode="normal" in="SourceGraphic" in2="effect2_dropShadow_1417_3088" result="shape"/>
</filter>
</defs>
</svg>
