<svg width="24" height="24" viewBox="0 0 24 24" fill="none" xmlns="http://www.w3.org/2000/svg">
<path d="M21.4007 14.1917L19.5624 12.7542C19.5857 12.5325 19.6057 12.2734 19.6057 11.9992C19.6057 11.725 19.5866 11.4659 19.5624 11.2442L21.4024 9.80586C21.7441 9.53586 21.8374 9.05668 21.6199 8.65754L19.7082 5.35C19.5041 4.97668 19.0566 4.785 18.6024 4.9525L16.4332 5.82332C16.0174 5.52332 15.5816 5.27 15.1307 5.0675L14.8007 2.76668C14.7466 2.33 14.3666 2 13.9174 2H10.0841C9.63492 2 9.25578 2.33 9.20242 2.76L8.8716 5.06918C8.43492 5.26586 8.00578 5.51586 7.5716 5.825L5.3966 4.95168C4.98906 4.79418 4.50156 4.97082 4.29906 5.3425L2.38492 8.65418C2.1591 9.03586 2.25242 9.53168 2.6016 9.80836L4.43992 11.2459C4.41074 11.5267 4.3966 11.7709 4.3966 12C4.3966 12.2292 4.41078 12.4734 4.43992 12.755L2.59992 14.1934C2.25824 14.4642 2.16574 14.9434 2.38324 15.3417L4.29492 18.6492C4.4991 19.0217 4.94242 19.215 5.40074 19.0467L7.56992 18.1759C7.98492 18.475 8.42074 18.7284 8.8716 18.9317L9.2016 21.2317C9.25574 21.67 9.63492 22 10.0849 22H13.9182C14.3674 22 14.7474 21.67 14.8007 21.24L15.1316 18.9317C15.5682 18.7342 15.9966 18.485 16.4316 18.175L18.6066 19.0483C18.7116 19.0891 18.8207 19.11 18.9332 19.11C19.2566 19.11 19.5541 18.9333 19.7041 18.6583L21.6241 15.3333C21.8374 14.9433 21.7441 14.4642 21.4007 14.1917ZM12.0007 15.3333C10.1624 15.3333 8.66742 13.8383 8.66742 12C8.66742 10.1617 10.1624 8.66668 12.0007 8.66668C13.8391 8.66668 15.3341 10.1617 15.3341 12C15.3341 13.8383 13.8391 15.3333 12.0007 15.3333Z" fill="#8C8C8C"/>
</svg>
