<svg width="24" height="24" viewBox="0 0 24 24" fill="none" xmlns="http://www.w3.org/2000/svg">
<path fill-rule="evenodd" clip-rule="evenodd" d="M11.4516 4.30402L10.2003 5.55531C9.82239 5.93312 9.20962 5.93325 8.83149 5.55531C8.45355 5.17738 8.45355 4.56467 8.83149 4.18673L11.7348 1.28351L11.7381 1.2806C11.7597 1.25925 11.7822 1.2388 11.8057 1.21951C11.8136 1.21301 11.8218 1.20711 11.8299 1.2012C11.8337 1.19849 11.8374 1.19577 11.8412 1.19299C11.8451 1.19004 11.8491 1.18705 11.853 1.18406C11.8625 1.17692 11.8719 1.16978 11.8817 1.16318C11.8926 1.15591 11.9038 1.14937 11.915 1.14281C11.9182 1.14095 11.9214 1.13907 11.9246 1.13718C11.9283 1.13493 11.9321 1.13265 11.9358 1.13038C11.9448 1.1249 11.9537 1.11944 11.963 1.11448C11.9742 1.10852 11.9856 1.10321 11.9971 1.09791C12.0005 1.09632 12.0039 1.09473 12.0074 1.09312C12.0112 1.09132 12.015 1.0895 12.0187 1.08767C12.0287 1.08287 12.0386 1.07808 12.0489 1.07383C12.0592 1.06956 12.0697 1.06589 12.0802 1.06222C12.0842 1.06079 12.0883 1.05936 12.0924 1.05789C12.096 1.05658 12.0997 1.05524 12.1033 1.05391C12.1149 1.04966 12.1265 1.04541 12.1383 1.04183C12.1484 1.03881 12.1586 1.03636 12.1687 1.03391C12.1731 1.03284 12.1775 1.03178 12.1819 1.03067C12.1861 1.02961 12.1903 1.02852 12.1945 1.02743C12.2063 1.02434 12.2181 1.02125 12.2303 1.01886C12.2427 1.01638 12.2552 1.01467 12.2677 1.01296C12.2718 1.0124 12.2759 1.01184 12.28 1.01125C12.2852 1.01052 12.2904 1.00969 12.2955 1.00887C12.3049 1.00738 12.3143 1.00588 12.3239 1.00493C12.3537 1.00202 12.3837 1.00054 12.4136 1.00041L12.4193 1.00015L12.425 1.00041C12.455 1.0006 12.4848 1.00202 12.5146 1.00493C12.5246 1.0059 12.5343 1.00745 12.5441 1.00901C12.5492 1.00983 12.5543 1.01064 12.5595 1.01138C12.5641 1.01206 12.5688 1.0127 12.5734 1.01334C12.585 1.01494 12.5967 1.01654 12.6082 1.0188C12.6209 1.02127 12.6333 1.02451 12.6457 1.02775C12.6498 1.02882 12.6538 1.02989 12.6579 1.03093C12.6621 1.03198 12.6663 1.03299 12.6704 1.03401C12.6803 1.03641 12.6902 1.03882 12.7 1.04177C12.7123 1.04545 12.7243 1.04985 12.7362 1.05424C12.74 1.05562 12.7437 1.05699 12.7475 1.05835C12.7513 1.05973 12.7552 1.06108 12.759 1.06242C12.7692 1.06598 12.7793 1.06954 12.7894 1.0737C12.8006 1.07836 12.8114 1.08358 12.8223 1.08882C12.8257 1.09047 12.8291 1.09212 12.8326 1.09377C12.8358 1.09529 12.8391 1.0968 12.8424 1.09831C12.8534 1.10342 12.8644 1.1085 12.8752 1.11428C12.8856 1.11982 12.8956 1.12594 12.9056 1.13207C12.9089 1.13408 12.9122 1.1361 12.9155 1.13809C12.919 1.14019 12.9225 1.14226 12.9261 1.14434C12.9363 1.15034 12.9465 1.15633 12.9565 1.16299C12.9682 1.1709 12.9795 1.17941 12.9907 1.18795C12.9937 1.19021 12.9967 1.19248 12.9997 1.19473C13.0035 1.19762 13.0074 1.20044 13.0113 1.20326C13.0185 1.20844 13.0256 1.21363 13.0326 1.21931C13.0573 1.23957 13.0811 1.26099 13.1038 1.28364L16.0068 4.18673C16.3848 4.56467 16.3848 5.17738 16.0068 5.55531C15.8179 5.74435 15.5703 5.8388 15.3226 5.8388C15.0749 5.8388 14.8273 5.74428 14.6383 5.55531L13.3871 4.30409V14.2257C13.3871 14.7602 12.9538 15.1934 12.4194 15.1934C11.8849 15.1934 11.4516 14.7602 11.4516 14.2257V4.30402ZM16.2903 7.45176H18.871C19.4054 7.45176 19.8387 7.88505 19.8387 8.41951V20.0324C19.8387 20.5669 19.4054 21.0002 18.871 21.0002H5.96774C5.43329 21.0002 5 20.5669 5 20.0324V8.41951C5 7.88505 5.43329 7.45176 5.96774 7.45176H8.54839C9.08284 7.45176 9.51613 7.88505 9.51613 8.41951C9.51613 8.95396 9.08284 9.38725 8.54839 9.38725H6.93548V19.0647H17.9032V9.38725H16.2903C15.7559 9.38725 15.3226 8.95396 15.3226 8.41951C15.3226 7.88505 15.7559 7.45176 16.2903 7.45176Z" fill="#8C8C8C"/>
</svg>
