<svg width="24" height="24" viewBox="0 0 24 24" fill="none" xmlns="http://www.w3.org/2000/svg">
<path fill-rule="evenodd" clip-rule="evenodd" d="M21.9767 2.99347C22.0601 4.52237 22.001 7.78235 20.4053 10.8672C19.3437 12.9197 17.0062 15.6109 13.9343 17.1988C13.9196 17.18 13.9041 17.1617 13.8868 17.1445L6.85565 10.1133C6.83838 10.096 6.82006 10.0805 6.80131 10.0658C8.38911 6.99387 11.0804 4.65635 13.1328 3.59476C15.7153 2.25894 18.4204 2 20.13 2C20.4626 2 20.7576 2.0098 21.0066 2.0234C21.5305 2.05195 21.9481 2.46961 21.9767 2.99347ZM17.7719 6.2281C16.6296 5.08576 14.771 5.08588 13.6288 6.2281C13.0754 6.78141 12.7707 7.51715 12.7707 8.29969C12.7707 9.08222 13.0754 9.81796 13.6288 10.3713C14.2 10.9425 14.95 11.228 15.7004 11.228C16.4505 11.2279 17.2009 10.9423 17.7719 10.3713C18.3253 9.81796 18.63 9.08222 18.63 8.29969C18.63 7.51715 18.3253 6.78141 17.7719 6.2281ZM5.35471 7.53493L7.08744 7.40106C5.75377 9.21109 4.86534 11.1758 4.49421 13.1453L2.9077 12.8996C2.5454 12.8434 2.24052 12.6098 2.09216 12.2745C1.94384 11.9392 1.97599 11.5564 2.17821 11.2505L4.17652 8.2282C4.44316 7.82488 4.87257 7.57219 5.35471 7.53493ZM11.1005 21.0923L10.8547 19.5058C12.8243 19.1347 14.7889 18.2463 16.599 16.9126L16.4651 18.6453C16.4279 19.1274 16.1752 19.5568 15.7719 19.8235L12.7495 21.8218C12.5709 21.9399 12.366 22 12.1596 22C12.0127 22 11.865 21.9695 11.7255 21.9078C11.3903 21.7595 11.1566 21.4546 11.1005 21.0923ZM10.2581 18.4062C10.3131 18.4062 10.3685 18.4016 10.4238 18.3924C11.2489 18.2544 12.0443 18.022 12.8029 17.7178L6.28225 11.1971C5.97804 11.9558 5.74562 12.7511 5.60765 13.5763C5.55327 13.9015 5.66237 14.2329 5.89554 14.4661L9.53396 18.1045C9.72755 18.2981 9.98884 18.4062 10.2581 18.4062ZM16.9433 9.54263C17.2753 9.2106 17.4582 8.76919 17.4582 8.29966C17.4582 7.83013 17.2753 7.38872 16.9433 7.05673C16.6007 6.71404 16.1505 6.54271 15.7004 6.54271C15.2503 6.54271 14.8001 6.71404 14.4574 7.05673C14.1254 7.38872 13.9426 7.83013 13.9426 8.29966C13.9426 8.76919 14.1254 9.21064 14.4574 9.54263C15.1428 10.228 16.258 10.228 16.9433 9.54263ZM3.01217 18.3102C2.89779 18.4247 2.74783 18.4819 2.59787 18.4819C2.44791 18.4819 2.29795 18.4247 2.18354 18.3102C1.95471 18.0814 1.95471 17.7104 2.18354 17.4816L4.09655 15.5686C4.32537 15.3398 4.69639 15.3398 4.92518 15.5686C5.15401 15.7974 5.15401 16.1684 4.92518 16.3972L3.01217 18.3102ZM6.67834 17.3217C6.44955 17.0929 6.07854 17.0929 5.84971 17.3217L2.17178 20.9997C1.94295 21.2285 1.94295 21.5995 2.17178 21.8283C2.28619 21.9427 2.43615 21.9999 2.58611 21.9999C2.73607 21.9999 2.88603 21.9427 3.00041 21.8283L6.67831 18.1504C6.90717 17.9215 6.90717 17.5506 6.67834 17.3217ZM5.68984 20.9879L7.6028 19.0749C7.83163 18.8461 8.20265 18.8461 8.43144 19.0749C8.66026 19.3037 8.66026 19.6747 8.43144 19.9035L6.51843 21.8165C6.40405 21.931 6.25405 21.9882 6.10413 21.9882C5.95421 21.9882 5.80425 21.931 5.68984 21.8165C5.46101 21.5877 5.46101 21.2167 5.68984 20.9879Z" fill="#8C8C8C"/>
</svg>
