<svg width="24" height="24" viewBox="0 0 24 24" fill="none" xmlns="http://www.w3.org/2000/svg">
<path d="M21.9713 9.24458C21.9024 9.03243 21.7191 8.87782 21.4984 8.84579L15.2983 7.94482L12.5254 2.3266C12.4267 2.1266 12.223 2 12 2C11.777 2 11.5733 2.1266 11.4746 2.3266L8.70165 7.94482L2.50167 8.84579C2.28101 8.87782 2.09761 9.03243 2.02871 9.24454C1.95976 9.45669 2.01726 9.68954 2.17699 9.8452L6.66322 14.2184L5.60432 20.3935C5.56658 20.6133 5.65697 20.8354 5.8374 20.9666C5.93947 21.0407 6.06037 21.0784 6.18185 21.0784C6.27513 21.0784 6.36873 21.0562 6.45443 21.0111L12 18.0956L17.5453 21.0111C17.7428 21.1149 17.982 21.0976 18.1624 20.9665C18.3428 20.8354 18.4332 20.6132 18.3955 20.3934L17.3363 14.2184L21.823 9.84516C21.9827 9.68954 22.0403 9.45669 21.9713 9.24458Z" fill="#8C8C8C"/>
</svg>
