<svg width="24" height="24" viewBox="0 0 24 24" fill="none" xmlns="http://www.w3.org/2000/svg">
<path fill-rule="evenodd" clip-rule="evenodd" d="M8.98715 12.3137C8.98715 11.527 9.26227 10.8037 9.72049 10.2335C9.052 10.2335 8.43173 10.0243 7.92041 9.66891C7.40909 10.0244 6.78882 10.2335 6.12018 10.2335C5.93784 10.2335 5.78983 10.0855 5.78983 9.90298C5.78983 9.72049 5.93784 9.57263 6.12018 9.57263C6.58847 9.57263 7.0267 9.44293 7.40192 9.21832C6.94934 8.72989 6.64844 8.09924 6.57565 7.40131H6.12033C5.93784 7.40131 5.78983 7.25345 5.78983 7.07095C5.78983 6.88846 5.93784 6.74045 6.12033 6.74045H7.59021V5.93814C7.59021 5.75549 7.73807 5.60764 7.92056 5.60764C8.10306 5.60764 8.25092 5.75549 8.25092 5.93814V6.74045H9.72079C9.90329 6.74045 10.0513 6.88846 10.0513 7.07095C10.0513 7.25345 9.90329 7.40131 9.72079 7.40131H9.26547C9.19269 8.09924 8.89178 8.72989 8.43921 9.21832C8.81427 9.44324 9.25266 9.57263 9.72079 9.57263C9.8952 9.57263 10.0377 9.70782 10.0501 9.87918C10.6444 9.3262 11.4402 8.987 12.314 8.987H13.8411V7.59448L15.7924 6.20074C15.9462 6.09088 16.0376 5.91327 16.0376 5.72406C16.0376 5.5347 15.9462 5.35709 15.7924 5.24722L13.8176 3.8367C13.6632 2.7988 12.7661 2 11.6861 2H4.155C2.96664 2 2 2.96664 2 4.15485V11.6863C2 12.8745 2.96664 13.8411 4.155 13.8411H8.98715V12.3137ZM12.3139 10.1589H19.8452C21.0334 10.1589 22 11.1255 22 12.3137V19.845C22 21.0334 21.0334 22 19.8452 22H12.3139C11.2339 22 10.3368 21.2012 10.1825 20.1633L8.20773 18.7528C8.05377 18.6429 7.96237 18.4653 7.96237 18.2759C7.96237 18.0867 8.05377 17.9091 8.20773 17.7993L10.159 16.4055V12.3137C10.159 11.1255 11.1257 10.1589 12.3139 10.1589ZM17.0368 18.2291C17.0681 18.3484 17.1747 18.3922 17.3128 18.3922C17.5325 18.3922 17.8275 18.2479 17.8275 18.0535C17.8275 18.0385 17.8236 18.0237 17.8189 18.0057L17.815 17.9906L16.6036 14.0428C16.5471 13.8546 16.3149 13.7665 16.0764 13.7665C15.8441 13.7665 15.6119 13.8546 15.5555 14.0428L14.3441 17.9906L14.3438 17.9915C14.3377 18.0164 14.3315 18.041 14.3315 18.0535C14.3315 18.2543 14.6265 18.3922 14.8462 18.3922C14.9843 18.3922 15.091 18.3484 15.1224 18.2291L15.3607 17.3943H16.7981L17.0368 18.2291ZM16.0762 14.8273L16.6225 16.754H15.5303L16.0762 14.8273ZM8.59943 7.40146C8.52756 7.94299 8.28204 8.43021 7.92041 8.80542C7.55908 8.43021 7.31342 7.94299 7.24155 7.40146H8.59943Z" fill="#8C8C8C"/>
</svg>
